<svg xmlns="http://www.w3.org/2000/svg" version="1.1" xmlns:xlink="http://www.w3.org/1999/xlink" xmlns:svgjs="http://svgjs.dev/svgjs" viewBox="0 0 1920 1080"><rect width="1920" height="1080" fill="#e4690c"></rect><g transform="matrix(0.5750000000000001,0.9959292143521044,-0.9959292143521044,0.5750000000000001,939.6067227449178,-712.0747886665922)"><path d="M0,-1080C15.343781879027508,-958.2989097286795,96.57694026502858,-599.8695710529906,92.06269127416505,-349.7934583720773C87.54844228330151,-99.71734569116396,-14.285249918516579,123.47644447501415,-27.085493945181213,420.4566760854799C-39.88573797184585,717.4369076959456,10.74697812331371,1142.1640439716305,15.261227114177245,1432.087931290717C19.77547610504078,1722.0118186098036,2.543537852362874,2038.681321881786,0,2160L 1920 2160 L 1920 -1080 Z" fill="url(&quot;#SvgjsLinearGradient1138&quot;)"></path><path d="M160,-1080C162.62958823752908,-952.6051832817597,164.38150408595212,-519.8411421967434,175.77752942517452,-315.63109969055773C187.17355476439693,-111.42105718437207,222.33877714985482,-48.19567122736066,228.37615203533437,145.2602550371139C234.41352692081392,338.71618130158845,237.17657729990452,613.4838127465051,212.00177873805183,845.1044578962897C186.82698017619913,1076.7251030460743,85.99432378722678,1315.8348689185361,77.32736066421813,1534.984125935821C68.66039754120949,1754.133382953106,146.22122677736968,2055.83068765597,160,2160L 1920 2160 L 1920 -1080 Z" fill="url(&quot;#SvgjsLinearGradient1139&quot;)"></path><path d="M320,-1080C299.85477272235335,-1000.9193613477195,184.7545056798181,-755.0364458319004,199.12863633411996,-605.516168086317C213.50276698842183,-455.99589034073347,372.3462768898169,-296.1771874523761,406.24478392581125,-182.87833352649915C440.1432909618056,-69.57947960062224,434.50171158022204,-48.485424899154864,402.5196785500859,74.27695546894455C370.5376455199498,197.03933583704395,222.75041082423996,422.1213192898151,214.3525857449946,553.6959486820974C205.95476066574923,685.2705780743797,344.47869943502604,714.1637184567079,352.1327280746138,863.7247318226384C359.78675671420154,1013.285745188569,247.18154742367682,1289.3443787508793,260.2767575825212,1451.0620288776806C273.3719677413656,1612.779679004482,420.7501152914337,1715.8743040630595,430.70398902768017,1834.030632583446C440.65786276392663,1952.1869611038326,338.4506648379467,2105.671772097241,320,2160L 1920 2160 L 1920 -1080 Z" fill="url(&quot;#SvgjsLinearGradient1140&quot;)"></path><path d="M480,-1080C486.32988528638464,-960.6310561200866,535.3258517291911,-599.7644817638084,517.9793117183078,-363.78633672051916C500.6327717074246,-127.80819167722993,381.5162529682039,147.14251117755597,375.9207599347004,335.8688702597354C370.3252669011969,524.5952293419148,480.1599895703837,565.6593646649651,484.40635351728685,768.5718177725573C488.65271746419,971.4842708801496,402.13333586900063,1321.4388918673817,401.3989436161195,1553.343588905289C400.66455136323833,1785.2482859431962,466.8998239360199,2058.8905981508815,480,2160L 1920 2160 L 1920 -1080 Z" fill="url(&quot;#SvgjsLinearGradient1141&quot;)"></path><path d="M640,-1080C645.6235307932913,-999.5831407954561,679.300227499679,-765.3808037230255,673.7411847597475,-597.4988447727362C668.1821420198161,-429.616885822447,603.776207663262,-267.19009974581763,606.6457435604116,-72.70824629826433C609.5152794575612,121.773607149289,687.3867416523051,396.9779454052142,690.9584001426454,569.3922759125837C694.5300586329856,741.8066064199533,638.0673775140301,789.5339167290495,628.075694502453,961.7777367459528C618.0840114908758,1134.021556762856,629.0209178235915,1403.1514854716627,631.0083020731827,1602.855196014004C632.9956863227738,1802.5589065563452,638.5013836788638,2067.1425326690005,640,2160L 1920 2160 L 1920 -1080 Z" fill="url(&quot;#SvgjsLinearGradient1142&quot;)"></path><path d="M800,-1080C813.7733318503941,-983.1765316022837,896.1004350055581,-632.7768083295015,882.6399911023648,-499.05918961370253C869.1795471991715,-365.3415708979036,716.0295140234919,-393.0481238798567,719.2373365808403,-277.6942877052066C722.4451591381887,-162.3404515305565,894.9300699202839,33.16350650938287,901.8869264464554,193.06382743419823C908.8437829726269,352.9641483590136,761.8686184979352,521.3717779122134,760.9784757378691,681.7076378436857C760.0883329778029,842.043497775158,897.6491744633304,968.6078729827336,896.5460698860586,1155.0789870230321C895.4429653087868,1341.5501010633307,770.4508599219146,1633.0474865893157,754.3598482742382,1800.534322085477C738.2688366265618,1968.0211575816384,792.3933080457064,2100.089053680913,800,2160L 1920 2160 L 1920 -1080 Z" fill="url(&quot;#SvgjsLinearGradient1143&quot;)"></path><path d="M960,-1080C943.4961915884694,-971.1567342206948,877.097421716283,-656.1103085488693,860.9771495308163,-426.9404053241692C844.8568773453496,-197.77050209946913,838.831689926609,72.6016947614691,863.2783668872001,295.0194193482004C887.7250438477913,517.4371439349318,1005.5036232904552,704.6139122965208,1007.6572112943636,907.5659421962187C1009.8107992982721,1110.5179720959165,884.1427634597115,1303.9925891124244,876.199894910651,1512.731598746388C868.2570263615904,1721.4706083803517,946.0333158184418,2052.121933124398,960,2160L 1920 2160 L 1920 -1080 Z" fill="url(&quot;#SvgjsLinearGradient1144&quot;)"></path><path d="M1120,-1080C1138.4112936585773,-1013.7349225649075,1222.9098574381742,-826.836107833267,1230.4677619514641,-682.4095353894447C1238.025666464754,-537.9829629456225,1183.6609403300624,-380.5948802102781,1165.34742707974,-213.44056533706657C1147.0339138294178,-46.286250463855055,1133.9218679651328,162.0600172899367,1120.5866824495301,320.51635384982444C1107.2514969339275,478.9726904097122,1076.4115077572974,592.24675338632,1085.336313986124,737.2974540222599C1094.2611202149506,882.3481546581997,1162.2129635759152,1015.8866061889491,1174.1355198224892,1190.8205576654636C1186.0580760690632,1365.7545091419781,1165.8942381026493,1625.371255825591,1156.8716514655678,1786.901162881347C1147.8490648284862,1948.431069937103,1126.1452752442613,2097.8168604802245,1120,2160L 1920 2160 L 1920 -1080 Z" fill="url(&quot;#SvgjsLinearGradient1145&quot;)"></path><path d="M1280,-1080C1262.7213323736935,-970.7459277930055,1169.9823255730664,-648.0325865631974,1176.3279942421614,-424.4755667580331C1182.6736629112563,-200.91854695286887,1280.6195074616687,50.14969218789324,1318.0740120145701,261.3421188309854C1355.5285165674716,472.5345454740775,1425.1154143305964,645.4458911188921,1401.0550215595704,842.6789931005197C1376.9946287885443,1039.9120950821475,1193.8874923150092,1225.1872295708379,1173.711655388414,1444.7407307207513C1153.535818461819,1664.2942318706648,1262.285275898069,2040.7901217867918,1280,2160L 1920 2160 L 1920 -1080 Z" fill="url(&quot;#SvgjsLinearGradient1146&quot;)"></path><path d="M1440,-1080C1449.9389711818285,-970.6853545916578,1501.8769899853073,-624.1798993226128,1499.6338270909712,-424.1121275499468C1497.390664196635,-224.04435577728086,1454.007713742441,-37.16655578799126,1426.5410226339836,120.40663063599573C1399.0743315255263,277.9798170599827,1313.959914623717,379.22425804525176,1334.833680440227,521.3269909939752C1355.707446256737,663.4297239426986,1540.1020399355884,796.6711897528862,1551.7836175330435,973.0230283283361C1563.4651951304986,1149.374866903786,1423.5537489471317,1381.6085271680638,1404.9231460249578,1579.4380224466745C1386.2925431027838,1777.2675177252852,1434.1538576708263,2063.239670407779,1440,2160L 1920 2160 L 1920 -1080 Z" fill="url(&quot;#SvgjsLinearGradient1147&quot;)"></path><path d="M1600,-1080C1605.6424379047562,-1018.6933083702428,1614.383840579962,-858.2860369497428,1633.8546274285377,-712.1598502214565C1653.3254142771134,-566.0336634931703,1738.35092462578,-389.05695249265364,1716.8247210914542,-203.24287963028235C1695.2985175571284,-17.428806767911084,1503.31919397711,258.60557704206224,1504.6974062225836,402.724586952771C1506.0756184680572,546.8435968634798,1717.3349663499628,525.8867823994566,1725.0939945642951,661.4711798339704C1732.8530227786275,797.0555772684842,1584.3902266929474,1053.5005300558225,1551.251575508578,1216.2309715598535C1518.1129243242087,1378.9614130638845,1518.1373500428424,1480.5589907847982,1526.2620874580793,1637.853828858156C1534.3868248733163,1795.1486669315138,1587.71034790968,2072.975638143026,1600,2160L 1920 2160 L 1920 -1080 Z" fill="url(&quot;#SvgjsLinearGradient1148&quot;)"></path><path d="M1760,-1080C1752.5560321501268,-989.2397700318617,1706.9625336497954,-715.4769182920674,1715.3361929007613,-535.4386201911702C1723.709852151727,-355.4003220902731,1808.8087633430732,-179.98814288158985,1810.2419555057952,0.22978860538239587C1811.6751476685172,180.44772009235464,1725.267331061614,373.40490941586086,1723.9353458770934,545.8689687306633C1722.6033606925728,718.3330280454657,1790.4349506894944,869.7765066850083,1802.2500443986714,1035.014144494197C1814.0651381078485,1200.2517823033854,1801.867582198601,1349.7971530014943,1794.8259081321557,1537.2947955857949C1787.7842340657105,1724.7924381700955,1765.8043180220259,2056.215799264299,1760,2160L 1920 2160 L 1920 -1080 Z" fill="url(&quot;#SvgjsLinearGradient1149&quot;)"></path></g><defs><linearGradient x1="0.1" y1="0" x2="0" y2="1" id="SvgjsLinearGradient1138"><stop stop-color="#e4690c" offset="0"></stop><stop stop-color="#e4450c" offset="0"></stop></linearGradient><linearGradient x1="0.1" y1="0" x2="0" y2="1" id="SvgjsLinearGradient1139"><stop stop-color="#f37312" offset="0"></stop><stop stop-color="#f34d12" offset="0.08333333333333333"></stop></linearGradient><linearGradient x1="0.1" y1="0" x2="0" y2="1" id="SvgjsLinearGradient1140"><stop stop-color="#f47e26" offset="0"></stop><stop stop-color="#f45c26" offset="0.16666666666666666"></stop></linearGradient><linearGradient x1="0.1" y1="0" x2="0" y2="1" id="SvgjsLinearGradient1141"><stop stop-color="#f58a39" offset="0"></stop><stop stop-color="#f56b39" offset="0.25"></stop></linearGradient><linearGradient x1="0.1" y1="0" x2="0" y2="1" id="SvgjsLinearGradient1142"><stop stop-color="#f6964d" offset="0"></stop><stop stop-color="#f67a4d" offset="0.3333333333333333"></stop></linearGradient><linearGradient x1="0.1" y1="0" x2="0" y2="1" id="SvgjsLinearGradient1143"><stop stop-color="#f7a161" offset="0"></stop><stop stop-color="#f78861" offset="0.4166666666666667"></stop></linearGradient><linearGradient x1="0.1" y1="0" x2="0" y2="1" id="SvgjsLinearGradient1144"><stop stop-color="#f8ad74" offset="0"></stop><stop stop-color="#f89774" offset="0.5"></stop></linearGradient><linearGradient x1="0.1" y1="0" x2="0" y2="1" id="SvgjsLinearGradient1145"><stop stop-color="#f9b888" offset="0"></stop><stop stop-color="#f9a588" offset="0.5833333333333334"></stop></linearGradient><linearGradient x1="0.1" y1="0" x2="0" y2="1" id="SvgjsLinearGradient1146"><stop stop-color="#fac49b" offset="0"></stop><stop stop-color="#fab49b" offset="0.6666666666666666"></stop></linearGradient><linearGradient x1="0.1" y1="0" x2="0" y2="1" id="SvgjsLinearGradient1147"><stop stop-color="#fbd0af" offset="0"></stop><stop stop-color="#fbc3af" offset="0.75"></stop></linearGradient><linearGradient x1="0.1" y1="0" x2="0" y2="1" id="SvgjsLinearGradient1148"><stop stop-color="#fcdbc3" offset="0"></stop><stop stop-color="#fcd1c3" offset="0.8333333333333334"></stop></linearGradient><linearGradient x1="0.1" y1="0" x2="0" y2="1" id="SvgjsLinearGradient1149"><stop stop-color="#fde7d6" offset="0"></stop><stop stop-color="#fde0d6" offset="0.9166666666666666"></stop></linearGradient></defs></svg>